Coordinates
version=1
nRows=10
nColumns=34
inDegrees=yes

Units are S.I. units (second, meters, Newtons, ...)
If the header above contains a line with 'inDegrees', this indicates whether rotational values are in degrees (yes) or radians (no).

endheader
time	pelvis_tilt	pelvis_list	pelvis_rotation	pelvis_tx	pelvis_ty	pelvis_tz	hip_flexion_r	hip_adduction_r	hip_rotation_r	knee_angle_r	ankle_angle_r	subtalar_angle_r	mtp_angle_r	hip_flexion_l	hip_adduction_l	hip_rotation_l	knee_angle_l	ankle_angle_l	subtalar_angle_l	mtp_angle_l	lumbar_extension	lumbar_bending	lumbar_rotation	arm_flex_r	arm_add_r	arm_rot_r	elbow_flex_r	pro_sup_r	arm_flex_l	arm_add_l	arm_rot_l	elbow_flex_l	pro_sup_l
      1.75000000	      9.19295962	      0.18816012	      5.93168699	     -8.94806570	      0.89788591	      0.49578091	    -15.70896979	      0.44023051	    -10.83260304	      0.45614111	     -7.15532762	    -22.02177592	      0.00000000	    -14.69343532	     -0.52717680	      0.04850051	      0.00000000	     -6.07629125	    -16.84523743	      0.00000000	     -9.03313887	     -5.90757041	     37.40704448	   -263.24606553	   -134.04148550	     13.57590671	    116.97259486	     68.51940792	   -256.09280309	      0.20356575	   -329.92418353	     58.86511734	    115.92571486
      1.76666670	      9.21464550	      0.20742105	      5.95627100	     -8.95369365	      0.89997714	      0.49665131	    -15.63189850	      0.44615351	    -10.86614721	      0.35848684	     -7.17317005	    -22.02449130	      0.00000000	    -14.64622346	     -0.52501007	      0.04699512	      0.00000000	     -6.07485032	    -16.84276311	      0.00000000	     -9.10374469	     -5.90540835	     37.45781736	   -263.23863858	   -134.01643537	     13.59743338	    116.96960660	     68.51845094	   -256.15283735	      0.19969434	   -329.90352787	     58.85096523	    115.93033132
      1.78333330	      9.26366937	      0.21850688	      5.97690858	     -8.95154353	      0.89632187	      0.49621185	    -15.54573722	      0.43533755	    -10.86730828	      0.30707885	     -7.17326561	    -22.02441010	      0.00000000	    -14.67992325	     -0.53295752	      0.04254093	      0.00000000	     -6.07676112	    -16.84353205	      0.00000000	     -9.11965335	     -5.90307232	     37.46266080	   -263.23894924	   -134.01130469	     13.60094307	    116.96944470	     68.51839405	   -256.15712467	      0.20258820	   -329.90065333	     58.84932660	    115.93087750
      1.80000000	      9.28458543	      0.26057698	      6.11296566	     -8.95048937	      0.89724162	      0.49577504	    -15.74703449	      0.43808581	    -11.23806208	      0.00000000	     -7.40474175	    -21.97177546	      0.00000000	    -14.74861336	     -0.53830820	     -0.10880952	      0.00000000	     -6.31159187	    -16.77238839	      0.00000000	     -8.86685736	     -5.84781281	     37.53742670	   -263.19843121	   -133.83705342	     13.74880941	    116.94296261	     68.49838668	   -256.42696976	      0.38497378	   -329.61973360	     58.70127245	    115.98719654
      1.81666670	      9.28601495	      0.25047299	      6.10552572	     -8.95963234	      0.89759746	      0.49704109	    -15.74205934	      0.42096672	    -11.24653602	      0.00000000	     -7.40396557	    -21.97361347	      0.00000000	    -14.81268865	     -0.54887801	     -0.10803866	      0.00000000	     -6.30804607	    -16.77286032	      0.00000000	     -8.79471807	     -5.84869478	     37.52660571	   -263.19491202	   -133.85051443	     13.74290595	    116.94242168	     68.49782298	   -256.41621534	      0.37632932	   -329.62309530	     58.70232949	    115.98727975
      1.83333330	      9.24207151	      0.18404946	      5.88351520	     -8.95148323	      0.90339745	      0.49663035	    -15.72876333	      0.41562252	    -11.61089252	      0.00000000	     -7.94204760	    -21.57135145	      0.00000000	    -14.86883434	     -0.53594510	     -0.40450568	      0.00000000	     -6.49412720	    -16.77041013	      0.00000000	     -8.62012844	     -5.81024882	     37.59202386	   -262.63237373	   -133.41689267	     13.96151468	    117.25401986	     68.46730183	   -256.74195841	      0.47874935	   -329.65964045	     58.44815265	    116.03924659
      1.85000000	      9.19299300	      0.17836396	      5.88510945	     -8.95036505	      0.90348301	      0.49644365	    -15.73033299	      0.42195865	    -11.61177386	      0.00000000	     -7.94582635	    -21.56795681	      0.00000000	    -14.88758859	     -0.52523521	     -0.40784369	      0.00000000	     -6.49895843	    -16.76985792	      0.00000000	     -8.64283442	     -5.81115843	     37.59566179	   -262.62589066	   -133.40947995	     13.96411507	    117.25667771	     68.46722632	   -256.74883519	      0.48036834	   -329.66017024	     58.44577011	    116.03955204
      1.86666670	      9.14916894	      0.18409720	      5.65901339	     -8.95254820	      0.90607669	      0.49682412	    -15.61723549	      0.35390972	    -11.94138990	      0.00000000	     -8.69573103	    -20.94603182	      0.00000000	    -14.85424029	     -0.45174210	     -1.24363384	      0.00000000	     -7.65506863	    -16.70620395	      0.00000000	     -8.54733946	     -5.87238513	     37.97660410	   -261.23711330	   -132.88441284	     13.97554742	    118.05686309	     68.44999680	   -257.23686095	      0.73684896	   -329.99626720	     58.72708084	    116.05295176
      1.88333330	      9.12947333	      0.18741831	      5.66176073	     -8.94837819	      0.90192338	      0.49647403	    -15.61063866	      0.35670888	    -11.93966990	      0.00367735	     -8.69816533	    -20.94255543	      0.00000000	    -14.85323935	     -0.45009789	     -1.24808295	      0.00000000	     -7.65973482	    -16.70746835	      0.00000000	     -8.58166356	     -5.87424869	     37.97830745	   -261.23361692	   -132.87643910	     13.97995283	    118.05802628	     68.45008336	   -257.24359416	      0.73916936	   -329.99692043	     58.72535282	    116.05326780
      1.90000000	      9.12750081	      0.20033809	      5.65970486	     -8.94608428	      0.90032856	      0.49716957	    -15.63647194	      0.35095703	    -11.94171410	      0.00000000	     -8.70094252	    -20.93920629	      0.00000000	    -14.82008772	     -0.46106296	     -1.25683264	      0.00000000	     -7.66744171	    -16.70992437	      0.00000000	     -8.58646736	     -5.87301672	     37.98285209	   -261.23155229	   -132.86962098	     13.98203342	    118.05898578	     68.44999891	   -257.23788620	      0.73842690	   -329.99983498	     58.72636295	    116.05355423
